<mxfile host="Electron" modified="2023-08-19T14:14:35.485Z" agent="Mozilla/5.0 (Windows NT 10.0; Win64; x64) AppleWebKit/537.36 (KHTML, like Gecko) draw.io/21.2.8 Chrome/112.0.5615.165 Electron/24.2.0 Safari/537.36" etag="RxKqtW6rQduZBQqAqGG7" version="21.2.8" type="device">
  <diagram name="Page-1" id="JR1qDSS7-Tm4AN7cza2m">
    <mxGraphModel dx="600" dy="1551" grid="1" gridSize="10" guides="1" tooltips="1" connect="1" arrows="1" fold="1" page="1" pageScale="1" pageWidth="827" pageHeight="1169" math="0" shadow="0">
      <root>
        <mxCell id="0" />
        <mxCell id="1" parent="0" />
        <mxCell id="1uYBjtJfFQ89ALHvVYMt-3" style="edgeStyle=orthogonalEdgeStyle;rounded=0;orthogonalLoop=1;jettySize=auto;html=1;exitX=0.5;exitY=1;exitDx=0;exitDy=0;entryX=0.5;entryY=0;entryDx=0;entryDy=0;" edge="1" parent="1" source="_1ZS8pvKhJVKjdCFND8f-1" target="1uYBjtJfFQ89ALHvVYMt-2">
          <mxGeometry relative="1" as="geometry" />
        </mxCell>
        <mxCell id="1uYBjtJfFQ89ALHvVYMt-10" value="编译" style="edgeLabel;html=1;align=center;verticalAlign=middle;resizable=0;points=[];labelBackgroundColor=none;fontSize=14;" vertex="1" connectable="0" parent="1uYBjtJfFQ89ALHvVYMt-3">
          <mxGeometry x="0.1686" y="-2" relative="1" as="geometry">
            <mxPoint x="22" y="-5" as="offset" />
          </mxGeometry>
        </mxCell>
        <mxCell id="_1ZS8pvKhJVKjdCFND8f-1" value="&lt;font style=&quot;font-size: 14px;&quot;&gt;源文件&lt;br&gt;Calculator.cpp&lt;/font&gt;" style="rounded=0;whiteSpace=wrap;html=1;fillColor=none;" parent="1" vertex="1">
          <mxGeometry x="120" y="-1080" width="120" height="60" as="geometry" />
        </mxCell>
        <mxCell id="1uYBjtJfFQ89ALHvVYMt-2" value="&lt;font style=&quot;font-size: 14px;&quot;&gt;目标文件&lt;br&gt;Calculator.o&lt;/font&gt;" style="rounded=0;whiteSpace=wrap;html=1;fillColor=none;" vertex="1" parent="1">
          <mxGeometry x="120" y="-960" width="120" height="60" as="geometry" />
        </mxCell>
        <mxCell id="1uYBjtJfFQ89ALHvVYMt-14" style="edgeStyle=orthogonalEdgeStyle;rounded=0;orthogonalLoop=1;jettySize=auto;html=1;exitX=0.5;exitY=1;exitDx=0;exitDy=0;entryX=0.5;entryY=0;entryDx=0;entryDy=0;" edge="1" parent="1" source="1uYBjtJfFQ89ALHvVYMt-16" target="1uYBjtJfFQ89ALHvVYMt-17">
          <mxGeometry relative="1" as="geometry" />
        </mxCell>
        <mxCell id="1uYBjtJfFQ89ALHvVYMt-15" value="编译" style="edgeLabel;html=1;align=center;verticalAlign=middle;resizable=0;points=[];labelBackgroundColor=none;fontSize=14;" vertex="1" connectable="0" parent="1uYBjtJfFQ89ALHvVYMt-14">
          <mxGeometry x="0.1686" y="-2" relative="1" as="geometry">
            <mxPoint x="22" y="-5" as="offset" />
          </mxGeometry>
        </mxCell>
        <mxCell id="1uYBjtJfFQ89ALHvVYMt-16" value="&lt;font style=&quot;font-size: 14px;&quot;&gt;源文件&lt;br&gt;Fraction.cpp&lt;/font&gt;" style="rounded=0;whiteSpace=wrap;html=1;fillColor=none;" vertex="1" parent="1">
          <mxGeometry x="280" y="-1080" width="120" height="60" as="geometry" />
        </mxCell>
        <mxCell id="1uYBjtJfFQ89ALHvVYMt-17" value="&lt;font style=&quot;font-size: 14px;&quot;&gt;目标文件&lt;br&gt;Fraction.o&lt;/font&gt;" style="rounded=0;whiteSpace=wrap;html=1;fillColor=none;" vertex="1" parent="1">
          <mxGeometry x="280" y="-960" width="120" height="60" as="geometry" />
        </mxCell>
        <mxCell id="1uYBjtJfFQ89ALHvVYMt-18" style="edgeStyle=orthogonalEdgeStyle;rounded=0;orthogonalLoop=1;jettySize=auto;html=1;exitX=0.5;exitY=1;exitDx=0;exitDy=0;entryX=0.5;entryY=0;entryDx=0;entryDy=0;" edge="1" parent="1" source="1uYBjtJfFQ89ALHvVYMt-20" target="1uYBjtJfFQ89ALHvVYMt-21">
          <mxGeometry relative="1" as="geometry" />
        </mxCell>
        <mxCell id="1uYBjtJfFQ89ALHvVYMt-19" value="编译" style="edgeLabel;html=1;align=center;verticalAlign=middle;resizable=0;points=[];labelBackgroundColor=none;fontSize=14;" vertex="1" connectable="0" parent="1uYBjtJfFQ89ALHvVYMt-18">
          <mxGeometry x="0.1686" y="-2" relative="1" as="geometry">
            <mxPoint x="22" y="-5" as="offset" />
          </mxGeometry>
        </mxCell>
        <mxCell id="1uYBjtJfFQ89ALHvVYMt-20" value="&lt;font style=&quot;font-size: 14px;&quot;&gt;源文件&lt;br&gt;Math.cpp&lt;/font&gt;" style="rounded=0;whiteSpace=wrap;html=1;fillColor=none;" vertex="1" parent="1">
          <mxGeometry x="440" y="-1080" width="120" height="60" as="geometry" />
        </mxCell>
        <mxCell id="1uYBjtJfFQ89ALHvVYMt-21" value="&lt;font style=&quot;font-size: 14px;&quot;&gt;目标文件&lt;br&gt;Math.o&lt;/font&gt;" style="rounded=0;whiteSpace=wrap;html=1;fillColor=none;" vertex="1" parent="1">
          <mxGeometry x="440" y="-960" width="120" height="60" as="geometry" />
        </mxCell>
      </root>
    </mxGraphModel>
  </diagram>
</mxfile>
